<?xml version="1.0" encoding="UTF-8" standalone="no"?>
<!DOCTYPE svg PUBLIC "-//W3C//DTD SVG 1.1//EN" "http://www.w3.org/Graphics/SVG/1.1/DTD/svg11.dtd">
<svg width="100%" height="100%" viewBox="0 0 362 151" version="1.1" xmlns="http://www.w3.org/2000/svg" xmlns:xlink="http://www.w3.org/1999/xlink" xml:space="preserve" xmlns:serif="http://www.serif.com/" style="fill-rule:evenodd;clip-rule:evenodd;stroke-miterlimit:2;">
    <g id="AdobeStock_483600169.svg" transform="matrix(0.00893475,0,0,0.00893475,55.1157,75.4489)">
        <g transform="matrix(1,0,0,1,-5721,-5210.5)">
            <clipPath id="_clip1">
                <rect x="0" y="0" width="11442" height="10421"/>
            </clipPath>
            <g clip-path="url(#_clip1)">
                <g transform="matrix(4.16667,0,0,4.16667,0,0)">
                    <rect x="0.5" y="0.5" width="2744.33" height="2500" style="fill:none;stroke:rgb(35,31,32);stroke-width:1px;"/>
                    <path d="M2613.28,1282.42C2599.07,1333.85 2561.37,1365.11 2517.97,1390.16C2443.7,1433.02 2363.83,1462.8 2278.61,1471.24C2204.11,1478.62 2128.8,1478.77 2053.81,1480.07C1975.18,1481.44 1896.5,1480.53 1817.84,1480.17C1808.76,1480.13 1803.54,1482.5 1798.88,1490.72C1760.13,1559 1370.91,2227.42 1288.59,2366.29C1262.21,2410.79 1225.67,2443.39 1173.59,2454.05C1124.69,2464.06 1079.46,2455.72 1041.21,2421.44C1022.5,2404.67 1016.65,2383.5 1022.39,2359.18C1045.7,2260.31 1067.93,2161.17 1092.68,2062.65C1141.78,1867.18 1192.28,1672.05 1242.16,1476.77C1242.64,1474.9 1242.67,1472.91 1243.09,1469.5C1237.97,1469.06 1233.4,1468.57 1228.82,1468.28C1147.57,1463.22 1066.18,1459.86 985.113,1452.72C889.351,1444.29 794.249,1430.05 700.002,1410.73C690.937,1408.87 684.689,1410.33 678.019,1417.67C587.839,1516.83 497.309,1615.68 406.804,1714.55C389.113,1733.88 370.13,1751.71 345.849,1762.67C323.247,1772.88 300.398,1774.95 280.098,1758.44C259.15,1741.41 249.541,1719.29 254.71,1691.41C276.62,1573.22 310.484,1458.09 343.176,1342.65C345.243,1335.35 347.261,1328.04 349.21,1320.7C349.39,1320.03 348.901,1319.17 348.787,1318.68C334.595,1313.03 285.412,1290.74 285.227,1277.98C285.04,1265.06 334.315,1242.69 349.885,1236.55C343.721,1215 336.875,1192.99 331.135,1170.68C306.819,1076.2 282.561,981.707 258.943,887.051C253.951,867.043 249.134,846.695 258.256,825.833C273.299,791.429 305.736,775.564 339.759,791.251C360.025,800.596 379.841,814.043 395.327,830.036C438.854,874.986 479.852,922.377 522.185,968.495C574.835,1025.85 627.925,1082.81 680.509,1140.23C685.76,1145.96 690.929,1146.26 697.482,1145.11C741.232,1137.41 784.823,1128.53 828.801,1122.47C892.676,1113.68 956.688,1105.21 1020.91,1099.79C1093.22,1093.69 1165.82,1091.14 1238.3,1087.02C1239.46,1086.95 1240.61,1086.52 1243.43,1085.89C1241.42,1077.06 1239.62,1068.28 1237.43,1059.6C1172.04,800.597 1106.52,541.624 1041.34,282.568C1034.22,254.267 1029.41,225.392 1022.76,196.961C1016.03,168.142 1025.75,145.85 1048.12,128.09C1102.95,84.553 1189.65,87.633 1244.4,136.886C1261.43,152.212 1277.02,170.512 1288.76,190.145C1371.24,327.988 1771,1015.35 1799.86,1066.22C1803.71,1073.02 1807.94,1075.41 1815.82,1075.4C1912.55,1075.23 2009.3,1074.38 2106.01,1075.99C2167.32,1077.01 2229.08,1077.96 2289.73,1085.91C2376.71,1097.31 2460.15,1123.06 2535.11,1170.82C2572.63,1194.73 2601.8,1225.76 2613.28,1270.38L2613.28,1282.42Z" style="fill:rgb(35,31,32);fill-rule:nonzero;"/>
                </g>
            </g>
        </g>
    </g>
    <g transform="matrix(0.602255,0,0,0.602255,48.0406,8.76302)">
        <g transform="matrix(82.3667,0,0,82.3667,118,91)">
            <path d="M0.11,-0.729L0.254,-0.729L0.254,-0.127L0.562,-0.127L0.562,-0L0.11,-0L0.11,-0.729Z" style="fill-rule:nonzero;"/>
        </g>
        <g transform="matrix(82.3667,0,0,82.3667,167.589,91)">
            <path d="M0.301,0.014C0.249,0.014 0.204,0.003 0.166,-0.021C0.128,-0.044 0.099,-0.077 0.079,-0.12C0.058,-0.163 0.048,-0.214 0.048,-0.272C0.048,-0.331 0.058,-0.382 0.079,-0.425C0.1,-0.468 0.129,-0.501 0.167,-0.525C0.205,-0.548 0.251,-0.56 0.303,-0.56C0.355,-0.56 0.4,-0.549 0.437,-0.526C0.474,-0.503 0.503,-0.47 0.524,-0.427C0.544,-0.385 0.554,-0.334 0.554,-0.275C0.554,-0.216 0.544,-0.164 0.523,-0.121C0.503,-0.078 0.473,-0.044 0.436,-0.021C0.398,0.002 0.353,0.014 0.301,0.014ZM0.301,-0.102C0.335,-0.102 0.361,-0.117 0.381,-0.148C0.401,-0.179 0.411,-0.221 0.411,-0.273C0.411,-0.326 0.401,-0.367 0.381,-0.398C0.361,-0.429 0.335,-0.444 0.301,-0.444C0.267,-0.444 0.241,-0.428 0.221,-0.398C0.201,-0.367 0.191,-0.325 0.191,-0.273C0.191,-0.221 0.201,-0.179 0.221,-0.148C0.241,-0.117 0.267,-0.102 0.301,-0.102Z" style="fill-rule:nonzero;"/>
        </g>
        <g transform="matrix(82.3667,0,0,82.3667,217.178,91)">
            <path d="M0.039,-0.547L0.184,-0.547L0.301,-0.12L0.418,-0.547L0.563,-0.547L0.389,-0L0.213,-0L0.039,-0.547Z" style="fill-rule:nonzero;"/>
        </g>
        <g transform="matrix(82.3667,0,0,82.3667,266.767,91)">
            <path d="M0.328,0.014C0.234,0.014 0.163,-0.01 0.114,-0.059C0.065,-0.108 0.04,-0.178 0.04,-0.27C0.04,-0.328 0.05,-0.379 0.07,-0.423C0.09,-0.466 0.121,-0.5 0.161,-0.524C0.201,-0.548 0.251,-0.56 0.312,-0.56C0.362,-0.56 0.405,-0.549 0.441,-0.525C0.478,-0.502 0.506,-0.47 0.526,-0.429C0.546,-0.388 0.556,-0.34 0.556,-0.285L0.556,-0.227L0.186,-0.227C0.186,-0.142 0.235,-0.099 0.335,-0.099C0.4,-0.099 0.466,-0.119 0.533,-0.158L0.533,-0.027C0.467,0 0.398,0.014 0.328,0.014ZM0.412,-0.334C0.412,-0.372 0.403,-0.401 0.384,-0.42C0.366,-0.44 0.339,-0.449 0.305,-0.449C0.27,-0.449 0.242,-0.439 0.222,-0.419C0.202,-0.4 0.191,-0.371 0.187,-0.334L0.412,-0.334Z" style="fill-rule:nonzero;"/>
        </g>
        <g transform="matrix(82.3667,0,0,82.3667,118,173.367)">
            <path d="M0.213,-0.729L0.389,-0.729L0.586,-0L0.442,-0L0.397,-0.18L0.204,-0.18L0.16,-0L0.016,-0L0.213,-0.729ZM0.369,-0.299L0.301,-0.597L0.233,-0.299L0.369,-0.299Z" style="fill-rule:nonzero;"/>
        </g>
        <g transform="matrix(82.3667,0,0,82.3667,167.589,173.367)">
            <path d="M0.22,-0.612C0.21,-0.612 0.206,-0.617 0.206,-0.626L0.206,-0.764C0.206,-0.774 0.21,-0.779 0.22,-0.779L0.334,-0.779C0.344,-0.779 0.349,-0.774 0.349,-0.764L0.349,-0.626C0.349,-0.617 0.344,-0.612 0.334,-0.612L0.22,-0.612ZM0.396,0.006C0.329,0.006 0.28,-0.012 0.25,-0.048C0.22,-0.083 0.206,-0.141 0.206,-0.222L0.206,-0.437L0.09,-0.437L0.09,-0.547L0.349,-0.547L0.349,-0.222C0.349,-0.18 0.355,-0.15 0.369,-0.131C0.382,-0.113 0.405,-0.104 0.437,-0.104L0.551,-0.104L0.551,0.006L0.396,0.006Z" style="fill-rule:nonzero;"/>
        </g>
        <g transform="matrix(82.3667,0,0,82.3667,217.178,173.367)">
            <path d="M0.118,-0.547L0.247,-0.547L0.261,-0.462C0.275,-0.493 0.296,-0.517 0.325,-0.534C0.354,-0.551 0.388,-0.56 0.426,-0.56C0.466,-0.56 0.503,-0.551 0.538,-0.532L0.538,-0.396C0.506,-0.425 0.465,-0.439 0.414,-0.439C0.372,-0.439 0.339,-0.43 0.313,-0.411C0.287,-0.392 0.271,-0.365 0.265,-0.329C0.264,-0.321 0.262,-0.31 0.262,-0.298C0.261,-0.286 0.261,-0.271 0.261,-0.252L0.261,-0L0.118,-0L0.118,-0.547Z" style="fill-rule:nonzero;"/>
        </g>
        <g transform="matrix(82.3667,0,0,82.3667,266.767,173.367)">
            <path d="M0.073,-0.547L0.202,-0.547L0.216,-0.465C0.246,-0.528 0.295,-0.56 0.361,-0.56C0.423,-0.56 0.471,-0.535 0.506,-0.484C0.541,-0.433 0.558,-0.362 0.558,-0.272C0.558,-0.183 0.541,-0.112 0.506,-0.062C0.471,-0.011 0.423,0.014 0.362,0.014C0.298,0.014 0.249,-0.016 0.216,-0.077L0.216,0.208L0.073,0.208L0.073,-0.547ZM0.316,-0.105C0.346,-0.105 0.37,-0.121 0.388,-0.152C0.406,-0.183 0.415,-0.224 0.415,-0.277C0.415,-0.328 0.406,-0.368 0.389,-0.398C0.372,-0.428 0.348,-0.443 0.317,-0.443C0.286,-0.443 0.262,-0.427 0.243,-0.397C0.225,-0.366 0.216,-0.325 0.216,-0.274C0.216,-0.223 0.225,-0.182 0.243,-0.151C0.261,-0.12 0.286,-0.105 0.316,-0.105Z" style="fill-rule:nonzero;"/>
        </g>
        <g transform="matrix(82.3667,0,0,82.3667,316.356,173.367)">
            <path d="M0.385,0.004C0.317,0.004 0.268,-0.014 0.239,-0.05C0.209,-0.085 0.194,-0.143 0.194,-0.224L0.194,-0.65L0.049,-0.65L0.049,-0.76L0.337,-0.76L0.337,-0.224C0.337,-0.182 0.344,-0.152 0.357,-0.133C0.371,-0.115 0.393,-0.106 0.425,-0.106L0.539,-0.106L0.539,0.004L0.385,0.004Z" style="fill-rule:nonzero;"/>
        </g>
        <g transform="matrix(82.3667,0,0,82.3667,365.945,173.367)">
            <path d="M0.236,0.014C0.18,0.014 0.134,-0.002 0.099,-0.034C0.064,-0.067 0.046,-0.113 0.046,-0.174C0.046,-0.213 0.053,-0.244 0.067,-0.268C0.081,-0.293 0.1,-0.311 0.124,-0.325C0.148,-0.338 0.175,-0.347 0.205,-0.352C0.235,-0.357 0.267,-0.36 0.3,-0.36L0.399,-0.36L0.399,-0.384C0.399,-0.403 0.394,-0.418 0.384,-0.428C0.374,-0.438 0.361,-0.445 0.344,-0.449C0.328,-0.452 0.312,-0.454 0.295,-0.454C0.26,-0.454 0.227,-0.449 0.196,-0.44C0.164,-0.431 0.132,-0.417 0.101,-0.4L0.101,-0.522C0.134,-0.536 0.168,-0.545 0.201,-0.552C0.235,-0.558 0.269,-0.561 0.303,-0.561C0.363,-0.561 0.41,-0.552 0.445,-0.535C0.48,-0.518 0.504,-0.491 0.519,-0.456C0.534,-0.42 0.542,-0.375 0.542,-0.32C0.542,-0.307 0.541,-0.291 0.541,-0.271C0.54,-0.251 0.54,-0.231 0.54,-0.211C0.54,-0.194 0.54,-0.177 0.54,-0.162C0.539,-0.146 0.539,-0.133 0.539,-0.122C0.539,-0.113 0.54,-0.1 0.541,-0.085C0.542,-0.07 0.544,-0.055 0.547,-0.039C0.551,-0.023 0.556,-0.01 0.564,-0L0.422,-0C0.416,-0.01 0.412,-0.02 0.409,-0.029C0.406,-0.038 0.404,-0.049 0.402,-0.061C0.383,-0.035 0.359,-0.016 0.33,-0.004C0.302,0.008 0.27,0.014 0.236,0.014ZM0.283,-0.085C0.313,-0.085 0.337,-0.093 0.353,-0.11C0.37,-0.126 0.382,-0.147 0.389,-0.172C0.396,-0.197 0.399,-0.222 0.399,-0.247L0.399,-0.257L0.342,-0.257C0.32,-0.257 0.298,-0.255 0.275,-0.252C0.253,-0.249 0.235,-0.241 0.22,-0.229C0.206,-0.217 0.199,-0.197 0.199,-0.169C0.199,-0.142 0.206,-0.122 0.221,-0.107C0.236,-0.092 0.257,-0.085 0.283,-0.085Z" style="fill-rule:nonzero;"/>
        </g>
        <g transform="matrix(82.3667,0,0,82.3667,415.534,173.367)">
            <path d="M0.084,-0.547L0.212,-0.547L0.226,-0.465C0.236,-0.495 0.253,-0.519 0.278,-0.535C0.303,-0.552 0.333,-0.56 0.368,-0.56C0.418,-0.56 0.457,-0.543 0.483,-0.508C0.51,-0.473 0.523,-0.422 0.523,-0.355L0.523,-0L0.381,-0L0.381,-0.333C0.381,-0.371 0.375,-0.399 0.365,-0.417C0.354,-0.435 0.337,-0.444 0.314,-0.444C0.286,-0.444 0.265,-0.432 0.249,-0.409C0.234,-0.385 0.226,-0.353 0.226,-0.313L0.226,-0L0.084,-0L0.084,-0.547Z" style="fill-rule:nonzero;"/>
        </g>
        <g transform="matrix(82.3667,0,0,82.3667,465.123,173.367)">
            <path d="M0.328,0.014C0.234,0.014 0.163,-0.01 0.114,-0.059C0.065,-0.108 0.04,-0.178 0.04,-0.27C0.04,-0.328 0.05,-0.379 0.07,-0.423C0.09,-0.466 0.121,-0.5 0.161,-0.524C0.201,-0.548 0.251,-0.56 0.312,-0.56C0.362,-0.56 0.405,-0.549 0.441,-0.525C0.478,-0.502 0.506,-0.47 0.526,-0.429C0.546,-0.388 0.556,-0.34 0.556,-0.285L0.556,-0.227L0.186,-0.227C0.186,-0.142 0.235,-0.099 0.335,-0.099C0.4,-0.099 0.466,-0.119 0.533,-0.158L0.533,-0.027C0.467,0 0.398,0.014 0.328,0.014ZM0.412,-0.334C0.412,-0.372 0.403,-0.401 0.384,-0.42C0.366,-0.44 0.339,-0.449 0.305,-0.449C0.27,-0.449 0.242,-0.439 0.222,-0.419C0.202,-0.4 0.191,-0.371 0.187,-0.334L0.412,-0.334Z" style="fill-rule:nonzero;"/>
        </g>
    </g>
</svg>
